<svg xmlns="http://www.w3.org/2000/svg" width="27" height="31.13556" viewBox="0 0 27 31.13556"><defs><style>.\31 40724cc-d113-43e4-9d6b-3a6b6f525a7b{fill:#fff;}</style></defs><title>app_icon</title><g id="29bfd9ed-67e4-4108-bd88-9b3345df5f4a" data-name="Layer 2"><g id="aabcd271-309f-4fb4-a38a-ae52ab8d99d4" data-name="Layer 1"><path class="140724cc-d113-43e4-9d6b-3a6b6f525a7b" d="M6.03654,3.38662l14.98268,8.65025a.13494.13494,0,0,1,0,.23372L16.59814,14.8231a.13491.13491,0,0,1-.13494,0L5.90161,8.72538a.13494.13494,0,0,1-.06747-.11686v-5.105A.13494.13494,0,0,1,6.03654,3.38662Zm0,6.66619L15.24611,15.37a.13494.13494,0,0,1,0,.23372L6.03654,20.92084a.13494.13494,0,0,1-.2024-.11686V10.16967A.13494.13494,0,0,1,6.03654,10.05281ZM.20241.01828,4.71547,2.62389a.135.135,0,0,1,.06747.11687V21.5667a.13494.13494,0,0,1-.06747.11686L.20241,24.28917A.13494.13494,0,0,1,0,24.17231V.13514A.13494.13494,0,0,1,.20241.01828Zm-.13494,25.659L22.28884,12.8478a.13491.13491,0,0,1,.13494,0l4.50875,2.60312a.13494.13494,0,0,1,0,.23372L.20241,31.11728A.13494.13494,0,0,1,0,31.00042V25.79417A.13493.13493,0,0,1,.06747,25.67731Z"/></g></g></svg>