<svg xmlns="http://www.w3.org/2000/svg" width="32" height="32" viewBox="0 0 24 24"><defs><style>.\30 52b74ad-4232-45e5-b75a-5d4450915a98{opacity:0.9;}.f085baa0-6b6f-49f7-aa24-0ce3228c8e30{fill:#fff;}</style></defs><title>backwards_icon</title><g id="5bfd9753-e9cf-435b-ad58-4982da5fb5e4" data-name="Layer 2"><g id="9c63a9d1-174e-4c33-b8b6-c3876911468a" data-name="Layer 1"><g class="052b74ad-4232-45e5-b75a-5d4450915a98"><path class="f085baa0-6b6f-49f7-aa24-0ce3228c8e30" d="M16.01047,6.40276a.26928.26928,0,0,0-.27683.01688L8.38213,11.48948V6.6402a.268.268,0,0,0-.536,0V17.3598a.268.268,0,0,0,.536,0V12.51052l7.35151,5.07011a.26932.26932,0,0,0,.27683.01661.2682.2682,0,0,0,.14338-.23744V6.6402A.2682.2682,0,0,0,16.01047,6.40276Zm-.3926,10.44679L8.58607,12l7.0318-4.84955Z"/><path class="f085baa0-6b6f-49f7-aa24-0ce3228c8e30" d="M12,0A12.0141,12.0141,0,0,0,6.26234,1.45853a.47533.47533,0,1,0,.45528.83454A11.07046,11.07046,0,1,1,4.23588,4.13988a.475.475,0,1,0-.66772-.6758A11.99823,11.99823,0,1,0,12,0Z"/></g></g></g></svg>
