<svg xmlns="http://www.w3.org/2000/svg" viewBox="0 0 69 69">
  <title>default_thumbnail_icon</title>
  <g>
    <rect width="69" height="69" opacity="0.46"/>
    <path d="M59.16,7.30464a1.01218,1.01218,0,0,0-.789-.241l-31,4.011a1.00027,1.00027,0,0,0-.872.992v36.264A9.925,9.925,0,0,0,19,45.05564c-5.247,0-9.5,3.781-9.5,8.444s4.253,8.444,9.5,8.444,9.5-3.781,9.5-8.444a7.5881,7.5881,0,0,0-.069-.981.9798.9798,0,0,0,.069-.343v-29.002l29-3.753v18.909a9.93152,9.93152,0,0,0-7.5-3.274c-5.247,0-9.5,3.781-9.5,8.444s4.253,8.444,9.5,8.444,9.5-3.781,9.5-8.444c0-.092-.012-.181-.015-.272.002-.027.015-.05.015-.077V8.05564A.998.998,0,0,0,59.16,7.30464Z" fill="#fff" opacity="0.5"/>
  </g>
</svg>
