<svg xmlns="http://www.w3.org/2000/svg" width="32" height="32" viewBox="0 0 24 24"><defs><style>.e6f492e4-cac9-4df2-8b55-2468b0f38d46{opacity:0.9;}.\39 a1b0f94-8bd6-4a71-988f-e599186845fd{fill:#fff;}</style></defs><title>forwards_icon</title><g id="d3367827-56f2-4491-b767-bf37f7f60759" data-name="Layer 2"><g id="74172c9d-9f70-4399-9ddd-cd9704faffe7" data-name="Layer 1"><g class="e6f492e4-cac9-4df2-8b55-2468b0f38d46"><path class="9a1b0f94-8bd6-4a71-988f-e599186845fd" d="M7.84615,6.6402V17.3598a.26753.26753,0,0,0,.268.268.27123.27123,0,0,0,.15222-.04716l7.35151-5.07011V17.3598a.268.268,0,1,0,.536,0V6.6402a.268.268,0,1,0-.536,0v4.84928L8.26636,6.41964a.26785.26785,0,0,0-.42021.22056Zm.536.51025L15.41393,12l-7.0318,4.84955Z"/><path class="9a1b0f94-8bd6-4a71-988f-e599186845fd" d="M0,12A12,12,0,1,0,20.43184,3.46408a.475.475,0,1,0-.66772.6758,11.01572,11.01572,0,1,1-2.48174-1.84681.47533.47533,0,1,0,.45528-.83454A12.003,12.003,0,0,0,0,12Z"/></g></g></g></svg>
