<svg xmlns="http://www.w3.org/2000/svg" width="42" height="42" viewBox="0 0 32 32"><defs><style>.aa550bdf-0d60-45e9-8563-a4f779f9b6c6{fill:#fff;}</style></defs><title>play_icon</title><g id="c21be8ba-c352-449c-980c-eb7da0efd387" data-name="Layer 2"><g id="710f6747-7975-4057-bad6-9a93e1b40254" data-name="Layer 1"><path class="aa550bdf-0d60-45e9-8563-a4f779f9b6c6" d="M16,0A16.01884,16.01884,0,0,0,8.34978,1.94471a.63377.63377,0,0,0,.607,1.11272,14.76059,14.76059,0,1,1-3.309,2.46241.63336.63336,0,1,0-.8903-.90107A15.99765,15.99765,0,1,0,16,0Z"/><path class="aa550bdf-0d60-45e9-8563-a4f779f9b6c6" d="M10.19822,6.11466a.835.835,0,0,0-.42225.72569V25.15966a.83476.83476,0,0,0,1.66952,0V8.30882l12.359,7.35742-9.08828,5.85541a.83475.83475,0,1,0,.90432,1.40336l10.22091-6.58526a.83486.83486,0,0,0-.02518-1.41909L11.03771,6.123A.8348.8348,0,0,0,10.19822,6.11466Z"/></g></g></svg>
