<svg xmlns="http://www.w3.org/2000/svg" viewBox="0 0 32 32">
  <title>play_icon</title>
  <g>
    <path d="M16,0A16,16,0,1,0,32,16,16.00008,16.00008,0,0,0,16,0Zm0,30.75A14.75,14.75,0,1,1,30.75,16,14.75,14.75,0,0,1,16,30.75Z" fill="#fff"/>
    <path d="M13.24794,7.42807,23.7913,13.51528a.095.095,0,0,1,0,.16447L20.68017,15.476a.095.095,0,0,1-.095,0L13.153,11.185a.095.095,0,0,1-.04748-.08224V7.51031A.095.095,0,0,1,13.24794,7.42807Zm0,4.691,6.48081,3.7417a.095.095,0,0,1,0,.16447L13.24794,19.767a.095.095,0,0,1-.14244-.08224v-7.4834A.095.095,0,0,1,13.24794,12.1191ZM9.14244,5.05776l3.17585,1.83358a.095.095,0,0,1,.04748.08224V20.22146a.095.095,0,0,1-.04748.08224L9.14244,22.13728A.095.095,0,0,1,9,22.055V5.14A.095.095,0,0,1,9.14244,5.05776Zm-.095,18.05635,15.63726-9.02817a.095.095,0,0,1,.095,0l3.17282,1.83183a.095.095,0,0,1,0,.16447l-18.81008,10.86A.095.095,0,0,1,9,26.86V23.19635A.095.095,0,0,1,9.04748,23.11411Z" fill="#fff"/>
  </g>
</svg>
