<svg xmlns="http://www.w3.org/2000/svg" width="9.90769" height="14.40039" viewBox="0 0 9.90769 14.40039"><defs><style>.\35 fcb953c-4cb7-4f47-b9c0-d1564d47555c{opacity:0.6;}.\31 ebf0269-230f-46b4-b060-9452780f9998{fill:#fff;}</style></defs><title>volume_off_icon</title><g id="76350d95-085f-42d3-a083-d9c1c393a267" data-name="Layer 2"><g id="63ec53ca-ca75-4056-a00c-57bd7a765585" data-name="Layer 1"><g id="765d930e-07b3-4bc9-86f7-b8f38b19acbd" data-name="b8e27c65-4bbf-45a9-81f2-7784ba0719d0" class="5fcb953c-4cb7-4f47-b9c0-d1564d47555c"><g id="423f9b5c-de8b-4009-b8fe-07908a352a46" data-name="c557a34a-8048-4cf0-acec-01d6ca9cd0ef"><path class="1ebf0269-230f-46b4-b060-9452780f9998" d="M4.025,7.5886a.31053.31053,0,0,0-.30962.30962v.46442a.30962.30962,0,0,0,.61923,0V7.89822A.31052.31052,0,0,0,4.025,7.5886Z"/><path class="1ebf0269-230f-46b4-b060-9452780f9998" d="M9.56708.065A.61665.61665,0,0,0,8.91689.1269L4.04047,3.81131a.92984.92984,0,0,0-.63471-.2477H1.54807A1.55263,1.55263,0,0,0,0,5.11169v4.3346a1.55262,1.55262,0,0,0,1.54807,1.54807H3.40576a.95985.95985,0,0,0,.72759-.34058l4.78354,3.62249a.56669.56669,0,0,0,.37154.12385.607.607,0,0,0,.27865-.06193.61665.61665,0,0,0,.34058-.5573V.62228A.64607.64607,0,0,0,9.56708.065ZM9.28843,13.78089,4.3346,10.03456A.31676.31676,0,0,0,4.025,9.7559a.31053.31053,0,0,0-.30962.30962.31052.31052,0,0,1-.30961.30961H1.54807a.93157.93157,0,0,1-.92884-.92884V5.11169a.93157.93157,0,0,1,.92884-.92888H3.40576a.31052.31052,0,0,1,.30961.30962V6.505a.30962.30962,0,1,0,.61923.00355v-2.016a.34075.34075,0,0,0-.01548-.12385L9.28843.62228Z"/></g></g></g></g></svg>