<svg xmlns="http://www.w3.org/2000/svg" width="15.4962" height="14.40031" viewBox="0 0 15.4962 14.40031"><defs><style>.\32 79f5cf2-b6c8-4739-9399-42093293e29e,.\32 e54a555-e5b2-40b4-8c49-066d16e6479a,.\33 af47c9e-3b32-4ad0-90f6-d11d14a75a85,.c6562dca-b5f5-4f05-9336-84627f77239c{fill:#fff;}.\32 e54a555-e5b2-40b4-8c49-066d16e6479a{opacity:0.6;}.\32 79f5cf2-b6c8-4739-9399-42093293e29e{opacity:0.7;}.\33 af47c9e-3b32-4ad0-90f6-d11d14a75a85{opacity:0.9;}</style></defs><title>volume_on_icon</title><g id="5ab781bb-c769-45e2-9b0d-3f68643199ee" data-name="Layer 2"><g id="0421f56c-f884-42f5-aa7a-b57930f6c59e" data-name="Layer 1"><path class="2e54a555-e5b2-40b4-8c49-066d16e6479a" d="M13.53015,2.71237a.3067.3067,0,0,0-.418.44894,5.48155,5.48155,0,0,1,1.7648,4.025,5.39264,5.39264,0,0,1-1.7648,4.025.2997.2997,0,0,0-.01548.43346.315.315,0,0,0,.23221.09288.36992.36992,0,0,0,.21673-.0774A6.10284,6.10284,0,0,0,15.4962,7.17081,6.19411,6.19411,0,0,0,13.53015,2.71237Z"/><path class="279f5cf2-b6c8-4739-9399-42093293e29e" d="M12.61678,4.46169a.30728.30728,0,0,0-.46442.4025,3.63458,3.63458,0,0,1,0,4.67517.31413.31413,0,0,0,.031.43346.3261.3261,0,0,0,.20125.07741.27853.27853,0,0,0,.23221-.10837,4.23384,4.23384,0,0,0,0-5.48017Z"/><path class="3af47c9e-3b32-4ad0-90f6-d11d14a75a85" d="M10.99131,5.793a.29419.29419,0,0,0-.10837.418,1.97447,1.97447,0,0,1,.26318.99076,2.01769,2.01769,0,0,1-.26318.99077.30537.30537,0,1,0,.52635.30961,2.56632,2.56632,0,0,0,.356-1.30038,2.52484,2.52484,0,0,0-.356-1.30038A.2913.2913,0,0,0,10.99131,5.793Z"/><path class="c6562dca-b5f5-4f05-9336-84627f77239c" d="M9.56708.06516a.61664.61664,0,0,0-.65019.06193L4.04047,3.8115a.92984.92984,0,0,0-.63471-.2477H1.54807A1.55263,1.55263,0,0,0,0,5.11188v4.3346a1.55262,1.55262,0,0,0,1.54807,1.54807H3.40576a.95982.95982,0,0,0,.72759-.34058l4.78354,3.62249a.56668.56668,0,0,0,.37154.12385.60708.60708,0,0,0,.27865-.06193.61663.61663,0,0,0,.34058-.5573V.62247A.64607.64607,0,0,0,9.56708.06516Z"/></g></g></svg>