<?xml version="1.0" encoding="utf-8"?>
<!-- Generator: Adobe Illustrator 22.0.1, SVG Export Plug-In . SVG Version: 6.00 Build 0)  -->
<svg xmlns:xlink="http://www.w3.org/1999/xlink" version="1.1" id="Layer_1" xmlns="http://www.w3.org/2000/svg" x="0px" y="0px"
	 viewBox="0 0 15.5 14.4" style="enable-background:new 0 0 15.5 14.4;" xml:space="preserve">
<title>volume_icon</title>
<g id="b8e27c65-4bbf-45a9-81f2-7784ba0719d0">
	<g id="c557a34a-8048-4cf0-acec-01d6ca9cd0ef">
		<g>
			<path d="M4,7.6c-0.2,0-0.3,0.1-0.3,0.3v0.5c0,0.2,0.1,0.3,0.3,0.3c0.2,0,0.3-0.1,0.3-0.3V7.9C4.3,7.7,4.2,7.6,4,7.6z"/>
			<path d="M9.6,0.1C9.4,0,9.1,0,8.9,0.1L4,3.8C3.9,3.7,3.6,3.6,3.4,3.6H1.5C0.7,3.6,0,4.3,0,5.1v4.3C0,10.3,0.7,11,1.5,11h1.9
				c0.3,0,0.5-0.1,0.7-0.3l4.8,3.6c0.1,0.1,0.2,0.1,0.4,0.1c0.1,0,0.2,0,0.3-0.1c0.2-0.1,0.3-0.3,0.3-0.6V0.6
				C9.9,0.4,9.8,0.2,9.6,0.1z M9.3,13.8l-5-3.7c0-0.2-0.2-0.3-0.3-0.3c-0.2,0-0.3,0.1-0.3,0.3c0,0.2-0.1,0.3-0.3,0.3H1.5
				C1,10.4,0.6,10,0.6,9.4V5.1c0-0.5,0.4-0.9,0.9-0.9h1.9c0.2,0,0.3,0.1,0.3,0.3v2c0,0.2,0.1,0.3,0.3,0.3c0.2,0,0.3-0.1,0.3-0.3
				c0,0,0,0,0,0v-2c0,0,0-0.1,0-0.1l5-3.7V13.8z"/>
		</g>
	</g>
</g>
</svg>
