<svg xmlns="http://www.w3.org/2000/svg" viewBox="0 0 15.4962 14.40031">
  <title>volume_on_icon</title>
  <g>
    <path d="M13.53015,2.71237a.3067.3067,0,0,0-.418.44894,5.48155,5.48155,0,0,1,1.7648,4.025,5.39264,5.39264,0,0,1-1.7648,4.025.2997.2997,0,0,0-.01548.43346.315.315,0,0,0,.23221.09288.36992.36992,0,0,0,.21673-.0774A6.10284,6.10284,0,0,0,15.4962,7.17081,6.19411,6.19411,0,0,0,13.53015,2.71237Z" fill="#fff"/>
    <path d="M12.61678,4.46169a.30728.30728,0,0,0-.46442.4025,3.63458,3.63458,0,0,1,0,4.67517.31413.31413,0,0,0,.031.43346.3261.3261,0,0,0,.20125.07741.27853.27853,0,0,0,.23221-.10837,4.23384,4.23384,0,0,0,0-5.48017Z" fill="#fff"/>
    <path d="M10.99131,5.793a.29419.29419,0,0,0-.10837.418,1.97447,1.97447,0,0,1,.26318.99076,2.01769,2.01769,0,0,1-.26318.99077.30537.30537,0,1,0,.52635.30961,2.56632,2.56632,0,0,0,.356-1.30038,2.52484,2.52484,0,0,0-.356-1.30038A.2913.2913,0,0,0,10.99131,5.793Z" fill="#fff"/>
    <path d="M9.56708.06516a.61664.61664,0,0,0-.65019.06193L4.04047,3.8115a.92984.92984,0,0,0-.63471-.2477H1.54807A1.55263,1.55263,0,0,0,0,5.11188v4.3346a1.55262,1.55262,0,0,0,1.54807,1.54807H3.40576a.95982.95982,0,0,0,.72759-.34058l4.78354,3.62249a.56668.56668,0,0,0,.37154.12385.60708.60708,0,0,0,.27865-.06193.61663.61663,0,0,0,.34058-.5573V.62247A.64607.64607,0,0,0,9.56708.06516Z" fill="#fff"/>
  </g>
</svg>
